<svg width="218" height="218" viewBox="0 0 218 218" fill="none" xmlns="http://www.w3.org/2000/svg">
<g opacity="0.95" clip-path="url(#clip0)">
<path d="M194.148 112.386C194.15 107.394 193.718 102.41 192.862 97.4907L185.778 98.7283C191.052 128.952 178.373 159.498 153.248 177.103L147.456 167.647C145.497 164.477 145.327 160.516 147.004 157.188L148.638 153.921C149.244 152.701 150.49 151.93 151.852 151.935H156.922C161.337 151.949 165.312 149.26 166.939 145.155L171.804 132.988C172.317 131.715 172.58 130.353 172.576 128.98V121.069C172.582 119.161 171.823 117.328 170.47 115.982L166.155 111.668C163.967 109.478 160.623 108.935 157.853 110.32L149.005 114.746C147.994 115.251 146.803 115.251 145.79 114.746L131.409 107.555C130.194 106.948 129.429 105.705 129.432 104.348V94.4097C129.432 90.4387 126.213 87.219 122.242 87.219C120.256 87.219 118.646 85.6092 118.646 83.6237V80.0284C118.646 78.8978 119.18 77.8322 120.084 77.1528L131.59 68.5243L127.275 62.7714L115.771 71.3999C113.062 73.4433 111.464 76.6367 111.456 80.0284V83.6237C111.456 89.5802 116.285 94.4097 122.242 94.4097V104.348C122.228 108.436 124.54 112.178 128.203 113.995L142.585 121.185C145.624 122.697 149.194 122.697 152.233 121.185L161.083 116.763L165.396 121.076V128.987C165.398 129.443 165.309 129.896 165.138 130.321L160.27 142.49C159.729 143.86 158.404 144.757 156.933 144.752H151.863C147.774 144.738 144.033 147.05 142.218 150.713L140.582 153.982C137.787 159.528 138.071 166.129 141.333 171.415L147.193 180.982C125.045 193.733 98.0889 194.951 74.8807 184.255L79.2924 181.309C79.8787 180.916 80.5687 180.703 81.2762 180.698H90.498C93.3613 180.707 96.1087 179.569 98.1276 177.538L108.296 167.37C110.325 165.351 111.464 162.604 111.456 159.74V143.135C111.456 141.186 110.927 139.274 109.928 137.601L102.248 124.758C100.283 121.55 96.7951 119.589 93.033 119.577H82.9439C79.3328 119.574 75.9586 121.377 73.9556 124.38L69.9828 130.363H61.1208C57.1498 130.363 53.9301 133.583 53.9301 137.554V144.422C53.9301 145.642 53.3104 146.779 52.2834 147.441L41.0655 154.676C33.0199 142.039 28.7504 127.366 28.7627 112.386C28.7627 111.182 28.7978 109.985 28.8523 108.791H35.1055C36.4678 108.788 37.7142 109.558 38.3199 110.78L42.5297 119.217C43.7463 121.652 46.2391 123.185 48.962 123.172H52.7574C55.0168 123.176 57.1463 122.119 58.5068 120.316C59.8691 118.513 60.3045 116.177 59.683 114.005L55.1028 98.0051H62.1987C64.6494 98.0051 67.0247 97.1712 68.9365 95.6404L80.6722 86.2517C84.4519 83.2182 85.7493 78.0393 83.8463 73.582L77.6913 59.2006C76.9821 57.5469 77.6053 55.6246 79.1484 54.6994L88.2018 49.2678C91.4829 47.2893 93.4754 43.7221 93.4385 39.8897L93.3788 34.6301C104.974 32.4533 116.912 32.9027 128.311 35.9468L130.152 29.0142C94.4445 19.4658 56.6214 33.719 36.0974 64.4585C15.5734 95.198 16.9058 135.595 39.4118 164.914C61.9178 194.235 100.598 205.964 135.598 194.082C170.598 182.201 194.143 149.348 194.148 112.386ZM86.1987 36.3312L86.2408 39.9915C86.2566 41.2696 85.5913 42.4581 84.4941 43.1146L75.4372 48.548C70.8272 51.3376 68.9681 57.0922 71.0765 62.0516L77.2314 76.433C77.8687 77.9182 77.4368 79.6474 76.1746 80.6586L64.4388 90.0455C63.8015 90.5475 63.0115 90.8179 62.1987 90.8144H55.1028C52.8435 90.8109 50.714 91.8695 49.3534 93.6724C47.9911 95.4736 47.5558 97.812 48.1772 99.9836L52.7574 115.982H48.962L44.7504 107.562C42.9352 103.898 39.1941 101.586 35.1055 101.6H29.5176C33.8468 70.552 56.0631 44.9703 86.1987 36.3312ZM45.1928 160.564L56.1807 153.482C59.2652 151.502 61.1261 148.085 61.1208 144.422V137.554H69.9828C72.3879 137.554 74.6332 136.351 75.9656 134.35L79.9525 128.369C80.6196 127.368 81.7431 126.768 82.9439 126.768H93.033C94.2777 126.77 95.4346 127.414 96.0894 128.472L103.754 141.293C104.089 141.85 104.265 142.485 104.265 143.135V159.74C104.265 160.695 103.887 161.612 103.212 162.286L93.0435 172.454C92.3694 173.13 91.453 173.509 90.498 173.507H81.2762C79.1449 173.507 77.0593 174.139 75.2863 175.322L67.6181 180.443C58.9545 175.294 51.3442 168.548 45.1928 160.564Z" fill="white"/>
<path d="M7.43471 115.885L0.263336 116.386C0.431868 118.819 0.686421 121.282 1.02173 123.701L8.14746 122.716C7.83497 120.458 7.59271 118.139 7.43471 115.885Z" fill="white"/>
<path d="M18.3366 62.6889L11.9482 59.3885C10.8264 61.5443 9.7643 63.8002 8.79349 66.0508L15.3961 68.9018C16.3089 66.8021 17.3008 64.713 18.3366 62.6889Z" fill="white"/>
<path d="M9.31839 129.482L2.27869 130.96C2.78253 133.358 3.35834 135.76 4.03422 138.109L10.951 136.156C10.3366 133.958 9.78712 131.722 9.31839 129.482Z" fill="white"/>
<path d="M9.22888 88.5357L2.18215 87.0979C1.69762 89.4802 1.28332 91.9256 0.960297 94.3553L8.08603 95.3086C8.38798 93.0404 8.77244 90.76 9.22888 88.5357Z" fill="white"/>
<path d="M25.4658 50.9391L19.583 46.7978C18.1821 48.7921 16.8268 50.8671 15.5576 52.9632L21.7055 56.692C22.8922 54.731 24.1579 52.7982 25.4658 50.9391Z" fill="white"/>
<path d="M12.8927 75.3007L6.11276 72.9132C5.29644 75.2322 4.5556 77.5881 3.9043 79.9388L10.8369 81.8559C11.4373 79.6685 12.1308 77.4653 12.8927 75.3007Z" fill="white"/>
<path d="M7.41013 102.143L0.219442 101.676C0.0737324 104.023 0 106.395 0 108.791V109.021L7.19069 108.791C7.19069 106.56 7.26442 104.344 7.41013 102.143Z" fill="white"/>
<path d="M13.0401 142.699L6.27429 145.122C7.10115 147.43 8.01052 149.728 8.98484 151.953L15.5751 149.077C14.6658 146.995 13.8126 144.853 13.0401 142.699Z" fill="white"/>
<path d="M34.1154 40.2601L28.8488 35.3675C27.1845 37.1651 25.5589 39.0313 24.0245 40.922L29.6107 45.453C31.0414 43.6834 32.56 41.9367 34.1154 40.2601Z" fill="white"/>
<path d="M93.8388 9.09582L92.8311 1.97009C90.4225 2.3054 87.9823 2.73199 85.5807 3.23583L87.0572 10.2791C89.2972 9.80155 91.5777 9.40479 93.8388 9.09582Z" fill="white"/>
<path d="M107.53 8.1215L107.5 0.930813C105.041 0.930813 102.567 1.02912 100.148 1.20117L100.659 8.39185C102.929 8.21103 105.218 8.1215 107.53 8.1215Z" fill="white"/>
<path d="M80.3844 11.9187L78.4322 4.99839C76.0921 5.65848 73.7291 6.41336 71.4223 7.24548L73.852 14.0113C76.006 13.2389 78.2022 12.5367 80.3844 11.9187Z" fill="white"/>
<path d="M44.129 30.8627L39.5769 25.2977C37.6861 26.8426 35.8235 28.4752 34.0452 30.1465L38.9659 35.3885C40.6267 33.8278 42.3682 32.304 44.129 30.8627Z" fill="white"/>
<path d="M67.4776 16.5498L64.6003 9.96306C62.376 10.9374 60.1465 12.0083 57.9714 13.1441L61.2999 19.5149C63.3205 18.4546 65.3991 17.4697 67.4776 16.5498Z" fill="white"/>
<path d="M55.3188 22.9031L51.5567 16.7728C49.4711 18.0526 47.4083 19.4184 45.4228 20.8316L49.5905 26.6916C51.4461 25.3802 53.3701 24.0951 55.3188 22.9031Z" fill="white"/>
<path d="M148.038 201.124L150.915 207.714C153.155 206.74 155.383 205.672 157.547 204.547L154.24 198.167C152.212 199.217 150.127 200.214 148.038 201.124Z" fill="white"/>
<path d="M181.449 177.484L186.707 182.396C188.375 180.598 190.004 178.742 191.545 176.848L185.969 172.306C184.528 174.076 183.003 175.819 181.449 177.484Z" fill="white"/>
<path d="M171.42 186.865L175.963 192.437C177.854 190.894 179.716 189.267 181.503 187.601L176.597 182.345C174.92 183.911 173.194 185.417 171.42 186.865Z" fill="white"/>
<path d="M190.128 166.827L196.001 170.992C197.41 168.996 198.773 166.928 200.042 164.835L193.901 161.097C192.711 163.03 191.445 164.965 190.128 166.827Z" fill="white"/>
<path d="M160.212 194.795L163.948 200.932C166.027 199.663 168.093 198.304 170.092 196.891L165.935 191.024C164.085 192.344 162.15 193.613 160.212 194.795Z" fill="white"/>
<path d="M135.12 205.725L137.062 212.65C139.409 211.992 141.772 211.241 144.077 210.421L141.656 203.648C139.499 204.428 137.309 205.114 135.12 205.725Z" fill="white"/>
<path d="M208.3 115.662L215.473 116.143C215.638 113.707 215.721 111.233 215.721 108.791H208.53C208.53 111.1 208.453 113.391 208.3 115.662Z" fill="white"/>
<path d="M206.448 129.264L213.491 130.702C213.984 128.318 214.4 125.872 214.732 123.446L207.606 122.479C207.297 124.761 206.908 127.038 206.448 129.264Z" fill="white"/>
<path d="M202.756 142.487L209.529 144.892C210.352 142.576 211.1 140.219 211.755 137.873L204.827 135.94C204.215 138.123 203.518 140.326 202.756 142.487Z" fill="white"/>
<path d="M197.273 155.092L203.658 158.404C204.784 156.247 205.847 154 206.822 151.753L200.228 148.875C199.319 150.978 198.323 153.068 197.273 155.092Z" fill="white"/>
<path d="M18.5332 155.262L12.1589 158.59C13.2912 160.748 14.5113 162.906 15.7806 164.986L21.932 161.236C20.7312 159.3 19.5953 157.29 18.5332 155.262Z" fill="white"/>
<path d="M39.9087 192.564C41.8134 194.112 43.7884 195.608 45.7757 197.01L49.91 191.124C48.0386 189.802 46.211 188.419 44.4274 186.976L39.9087 192.564Z" fill="white"/>
<path d="M65.0076 207.803C67.2406 208.771 69.5491 209.68 71.8717 210.503L74.2698 203.724C72.1122 202.953 69.9547 202.108 67.8726 201.206L65.0076 207.803Z" fill="white"/>
<path d="M51.9271 201.034C54.0267 202.31 56.1878 203.522 58.3523 204.629L61.6562 198.239C59.6356 197.197 57.622 196.064 55.6593 194.874L51.9271 201.034Z" fill="white"/>
<path d="M29.1226 182.522C30.8009 184.32 32.5565 186.063 34.3313 187.72L39.2363 182.457C37.5755 180.91 35.9359 179.278 34.3682 177.606L29.1226 182.522Z" fill="white"/>
<path d="M25.6958 166.975L19.8288 171.13C21.242 173.123 22.7413 175.085 24.2861 176.985L29.8407 172.429C28.4029 170.667 27.0125 168.834 25.6958 166.975Z" fill="white"/>
<path d="M121.676 208.52L122.651 215.642C125.065 215.31 127.505 214.894 129.906 214.394L128.447 207.354C126.197 207.817 123.929 208.211 121.676 208.52Z" fill="white"/>
<path d="M93.3033 215.677C95.7084 216.002 98.1714 216.249 100.626 216.397L101.105 209.206C98.807 209.055 96.509 208.822 94.2742 208.52L93.3033 215.677Z" fill="white"/>
<path d="M107.967 209.461V216.651C110.43 216.651 112.904 216.565 115.325 216.397L114.832 209.206C112.567 209.376 110.279 209.461 107.967 209.461Z" fill="white"/>
<path d="M78.8921 212.715C81.2551 213.372 83.6637 213.955 86.0477 214.445L87.4855 207.401C85.2595 206.945 83.0124 206.401 80.8127 205.79L78.8921 212.715Z" fill="white"/>
<path d="M137.343 31.2718L135.275 66.4352C134.975 71.5614 136.879 76.5717 140.51 80.2057L147.485 87.1734L160.179 54.1429L173.012 66.9742V82.8442C173.007 85.7005 174.144 88.4426 176.172 90.4545L182.406 96.6937L190.032 83.9836L191.861 85.8093C194.57 88.6147 198.579 89.7382 202.352 88.7516C206.123 87.765 209.067 84.8192 210.055 81.0483C211.042 77.2774 209.917 73.266 207.113 70.559L205.287 68.7315L217.999 61.1036L211.765 54.861C209.748 52.8298 207.003 51.6922 204.139 51.701H188.262L175.452 38.8733L208.502 26.1632L201.511 19.1849C197.883 15.5509 192.87 13.6479 187.746 13.9534L152.583 16.0214L141.017 4.45067C136.748 0.377818 130.031 0.377818 125.762 4.45067C121.548 8.66396 121.548 15.493 125.762 19.7063L137.343 31.2718ZM144.77 74.1929C143.124 72.1144 142.299 69.5021 142.451 66.8548L144.144 38.092L154.628 48.5761L144.77 74.1929ZM180.989 85.0615C180.482 84.4225 180.204 83.6307 180.203 82.8144V74.1473L184.8 78.738L180.989 85.0615ZM204.136 58.8811C204.952 58.8829 205.744 59.1603 206.383 59.6676L200.049 63.4894L195.456 58.9022L204.136 58.8811ZM188.166 21.13C190.813 20.9738 193.427 21.8007 195.504 23.4491L169.873 33.3065L159.389 22.8224L188.166 21.13ZM130.849 9.53822C132.252 8.1373 134.525 8.1373 135.93 9.53822L202.029 75.6395C203.43 77.0422 203.43 79.3156 202.029 80.7183C200.607 82.0788 198.367 82.0788 196.945 80.7183L130.849 14.6187C129.448 13.2143 129.448 10.9426 130.849 9.53822Z" fill="white"/>
</g>
<defs>
<clipPath id="clip0">
<rect width="218" height="218" fill="white"/>
</clipPath>
</defs>
</svg>
