<svg width="484" height="307" viewBox="0 0 484 307" fill="none" xmlns="http://www.w3.org/2000/svg">
<path d="M220 305.712C219.2 305.512 215.1 304.812 211 304.212C187.6 300.412 158.8 287.112 141.1 271.912L135.6 267.212H100.9C69.4 267.212 62.7 266.712 65.9 264.812C66.3 264.512 76.4 262.712 88.1 260.812C123.6 255.012 188 244.312 196 242.812C211.4 240.012 218.6 235.712 237.9 218.312C242.6 214.112 248.9 208.412 252 205.612L257.7 200.412L263.1 201.912C266.4 202.812 275.1 203.612 285.7 203.912C300.8 204.412 303.3 204.212 305.6 202.712C312.6 198.212 312.9 180.912 306.1 177.212C299.5 173.712 292 181.012 292 190.812C292 194.112 290.8 195.312 289.4 193.112C289.1 192.512 288.5 189.712 288.1 186.812C287.5 181.912 287.4 181.712 284.3 181.412C282.5 181.212 281 180.712 281 180.312C281 179.712 313.6 149.312 323.5 140.712C324.1 140.212 326.2 138.212 328.2 136.312C333.2 131.712 334.3 132.912 331.9 139.912C328.6 149.612 319.5 149.912 418 136.712C432.6 134.812 446.8 132.712 449.5 132.212C464.3 129.112 476.3 118.612 474.5 110.112C473.1 103.712 462.3 98.2117 451 98.2117C448 98.2117 441 99.4117 435.5 100.812C425.4 103.312 404.2 105.512 402.6 104.112C401.4 103.112 402.8 101.212 404.8 101.212C407.2 101.212 421.7 96.4117 426.2 94.1117C429.2 92.5117 432.1 92.2117 441.9 92.2117C469.8 92.2117 483.5 98.9117 483.4 112.712C483.3 122.112 477.5 129.412 465.5 135.112C455 140.112 450.5 141.112 421.7 144.812C406.2 146.812 393.3 148.612 393 148.912C392.7 149.112 392 155.512 391.3 163.012C388.7 193.512 381.4 214.812 365.3 239.212C342.3 273.812 304.5 298.012 263 304.712C254.7 306.012 225.1 306.712 220 305.712ZM276.8 285.312C303.8 275.312 325.4 259.412 341.9 237.412C358.2 215.712 367.6 190.612 369.6 163.712C370.4 152.212 370.2 151.912 360 153.312C355.9 153.912 352.2 154.812 351.9 155.412C351.6 155.912 351 161.412 350.7 167.512C349.5 192.512 341 217.412 326.3 238.712C318.1 250.612 299.5 268.512 287.5 276.012C282.1 279.412 275.3 283.112 272.3 284.412C269.4 285.612 267 286.912 267 287.412C267 288.712 268.4 288.412 276.8 285.312Z" fill="#234BAD"/>
<path d="M109.7 236.812L104 228.212L84.3 228.012C67.7 227.712 64.5 227.512 64.5 226.212C64.5 225.112 69.3 224.112 86 221.612C97.8 219.912 125.7 215.712 148 212.312C170.3 208.912 188.8 206.212 189.3 206.212C191.1 206.212 189.5 209.012 182.8 217.612L175.5 226.912L147 235.512C131.3 240.212 117.8 244.312 116.9 244.712C115.8 245.112 113.9 243.112 109.7 236.812Z" fill="#F4B225"/>
<path d="M0 210.812C0 209.912 0.2 209.212 0.4 209.212C0.6 209.212 46 200.212 101.2 189.212C170.1 175.512 202.8 168.612 205.5 167.112C216.9 161.112 226.6 155.812 227.4 155.112C229 153.612 232.3 154.012 231.7 155.612C231.4 156.412 227.5 161.712 223 167.512L214.9 178.012L201.7 181.212C194.4 183.012 183.1 185.912 176.5 187.712C158.9 192.612 126.5 201.712 110.8 206.312C103.3 208.412 96.9 210.212 96.6 210.212C96.3 210.212 95.4 208.612 94.6 206.712C93.8 204.812 92.5 203.212 91.8 203.212C90 203.212 10.6 211.012 4.8 211.812C0.799999 212.312 0 212.112 0 210.812Z" fill="#F4B225"/>
<path d="M86.5 175.012C85.2 170.612 84.7 143.212 85.9 135.412C91.7 97.0116 105.2 69.6116 131.1 44.1116C148.1 27.2116 165.8 16.1116 188.5 7.91164C210.4 0.111638 241.2 -2.18836 266 2.21164C302.3 8.61164 338 30.4116 359.9 59.6116C367 69.0116 377 85.6116 377 87.9116C377 89.6116 377.3 89.5116 359.5 92.1116C343.2 94.5116 299.5 103.112 275.5 108.612C267.3 110.512 249 114.712 235 118.012C200.8 126.112 168.7 133.212 166.5 133.212C165.6 133.212 160.7 129.212 155.7 124.412C150.6 119.512 144.9 114.712 143 113.712C139 111.612 122.7 109.812 116.7 110.812C114 111.212 112.6 112.112 111.8 113.812C110.8 116.012 111.3 117.212 116.8 125.312C120.2 130.412 123 135.112 123 135.912C123 136.612 120.5 141.212 117.5 146.012C114.4 150.812 112.1 155.412 112.2 156.212C112.6 158.312 120.9 158.712 125.2 156.912C127 156.112 131.7 152.612 135.7 149.212C139.7 145.812 143.4 143.312 144 143.712C144.6 144.112 143.8 146.712 141.9 150.512C139.3 155.512 139 156.912 139.9 158.412C141.3 160.712 140.7 161.812 137.8 162.512C136.5 162.712 125 166.212 112.1 170.112C99.3 174.012 88.4 177.212 88 177.212C87.6 177.212 86.9 176.212 86.5 175.012ZM252.8 104.712C275 99.6116 293.6 95.0116 294.3 94.3116C295.2 93.4116 295.2 92.7116 294.3 91.3116C292.7 88.8116 293.5 88.2116 298.5 88.2116C304.1 88.2116 307.1 85.0116 307.8 78.3116C308.2 73.7116 308 73.0116 305.2 70.2116C301.3 66.3116 298.3 67.2116 295.5 73.0116C293.2 77.9116 291 78.5116 291 74.3116C291 70.2116 289.2 69.0116 284.6 70.3116C282.3 70.9116 280.5 72.2116 279.8 73.8116C279.2 75.1116 278.3 76.2116 277.8 76.2116C276.9 76.2116 272.1 72.3116 258.6 60.3116C248.3 51.2116 240.2 48.9116 220.5 49.4116C210.5 49.6116 208.5 50.0116 208.2 51.3116C208.1 52.2116 209.9 56.2116 212.4 60.3116C227.7 85.5116 232.1 93.4116 231.7 94.6116C231.4 95.3116 225.7 99.0116 219 102.812C212.3 106.612 206.5 110.312 206.3 111.012C205.2 113.712 206.9 115.412 209.8 114.712C211.3 114.312 230.6 109.812 252.8 104.712ZM350.7 86.1116C359 84.6116 359.8 83.5116 356.6 78.0116C352.4 70.9116 341.4 57.7116 333.7 50.7116C304.9 24.3116 264.7 10.5116 227.6 14.1116C216.9 15.2116 213.5 16.7116 216 19.6116C217 20.9116 219.4 21.2116 227.1 21.2116C263.9 21.2116 303.9 41.0116 328.2 71.0116C331.5 75.3116 335.7 80.9116 337.3 83.5116C339.7 87.4116 340.7 88.3116 342.4 87.8116C343.5 87.5116 347.3 86.7116 350.7 86.1116Z" fill="#F4B225"/>
</svg>
