<svg width="573" height="167" viewBox="0 0 573 167" fill="none" xmlns="http://www.w3.org/2000/svg">
<g opacity="0.95">
<path d="M119.408 165.928C118.973 165.82 116.748 165.44 114.523 165.114C101.822 163.052 86.1905 155.833 76.5836 147.583L73.5985 145.032H54.7646C37.6677 145.032 34.0312 144.761 35.768 143.729C35.9851 143.567 41.467 142.59 47.8173 141.558C67.0853 138.41 102.039 132.603 106.381 131.789C114.74 130.269 118.648 127.935 129.123 118.491C131.674 116.211 135.093 113.118 136.776 111.598L139.87 108.776L142.801 109.59C144.592 110.078 149.314 110.513 155.067 110.675C163.263 110.947 164.62 110.838 165.868 110.024C169.667 107.582 169.83 98.1918 166.139 96.1836C162.557 94.2839 158.486 98.2461 158.486 103.565C158.486 105.356 157.835 106.008 157.075 104.813C156.912 104.488 156.587 102.968 156.37 101.394C156.044 98.7346 155.99 98.626 154.307 98.4632C153.33 98.3546 152.516 98.0833 152.516 97.8662C152.516 97.5405 170.21 81.0406 175.583 76.3728C175.909 76.1014 177.049 75.0159 178.134 73.9847C180.848 71.488 181.445 72.1393 180.142 75.9386C178.351 81.2034 173.412 81.3662 226.874 74.2018C234.799 73.1705 242.506 72.0307 243.971 71.7593C252.004 70.0768 258.517 64.3778 257.54 59.7643C256.78 56.2906 250.919 53.3055 244.785 53.3055C243.157 53.3055 239.358 53.9568 236.373 54.7166C230.891 56.0735 219.384 57.2676 218.516 56.5077C217.864 55.965 218.624 54.9337 219.71 54.9337C221.012 54.9337 228.882 52.3285 231.325 51.0801C232.953 50.2117 234.527 50.0489 239.846 50.0489C254.989 50.0489 262.425 53.6854 262.371 61.1755C262.317 66.2775 259.169 70.2396 252.655 73.3333C246.956 76.0471 244.514 76.5899 228.882 78.5981C220.47 79.6837 213.468 80.6606 213.305 80.8235C213.142 80.932 212.762 84.4057 212.382 88.4764C210.971 105.031 207.009 116.591 198.271 129.835C185.787 148.614 165.271 161.749 142.746 165.386C138.241 166.091 122.176 166.471 119.408 165.928ZM150.236 154.856C164.891 149.428 176.615 140.799 185.57 128.858C194.417 117.08 199.519 103.457 200.605 88.8563C201.039 82.6146 200.93 82.4517 195.394 83.2116C193.169 83.5373 191.161 84.0257 190.998 84.3514C190.835 84.6228 190.509 87.608 190.346 90.9188C189.695 104.488 185.082 118.003 177.103 129.563C172.652 136.022 162.557 145.738 156.044 149.808C153.113 151.654 149.422 153.662 147.794 154.368C146.22 155.019 144.917 155.725 144.917 155.996C144.917 156.701 145.677 156.539 150.236 154.856Z" fill="white"/>
<path d="M59.5409 128.532L56.4472 123.864L45.7548 123.756C36.745 123.593 35.0081 123.485 35.0081 122.779C35.0081 122.182 37.6134 121.639 46.6775 120.282C53.0821 119.36 68.2251 117.08 80.3287 115.235C92.4323 113.389 102.473 111.924 102.745 111.924C103.722 111.924 102.853 113.443 99.2168 118.111L95.2546 123.159L79.7859 127.827C71.2646 130.378 63.9373 132.603 63.4488 132.82C62.8518 133.037 61.8205 131.952 59.5409 128.532Z" fill="white"/>
<path d="M0 114.42C0 113.932 0.108552 113.552 0.217104 113.552C0.325657 113.552 24.967 108.667 54.9274 102.697C92.3237 95.2609 110.072 91.5159 111.537 90.7017C117.725 87.4452 122.99 84.5685 123.424 84.1886C124.292 83.3745 126.083 83.5916 125.758 84.46C125.595 84.8942 123.478 87.7708 121.036 90.9188L116.639 96.6178L109.475 98.3547C105.513 99.3316 99.3796 100.906 95.7974 101.883C86.2448 104.542 68.6593 109.481 60.138 111.978C56.0672 113.118 52.5936 114.095 52.4307 114.095C52.2679 114.095 51.7794 113.226 51.3452 112.195C50.911 111.164 50.2054 110.295 49.8255 110.295C48.8485 110.295 5.75327 114.529 2.60525 114.963C0.434209 115.235 0 115.126 0 114.42Z" fill="white"/>
<path d="M46.9489 94.9895C46.2433 92.6014 45.9719 77.7297 46.6232 73.4962C49.7712 52.6542 57.0985 37.7825 71.156 23.9421C80.3829 14.7694 89.9898 8.74477 102.311 4.29413C114.197 0.0605928 130.914 -1.18776 144.374 1.20039C164.077 4.67407 183.453 16.5063 195.34 32.3549C199.193 37.4568 204.621 46.4667 204.621 47.715C204.621 48.6377 204.784 48.5834 195.123 49.9946C186.276 51.2973 162.557 55.965 149.531 58.9502C145.08 59.9814 135.148 62.261 127.549 64.0521C108.986 68.4485 91.5638 72.3021 90.3698 72.3021C89.8813 72.3021 87.2217 70.1311 84.5079 67.5258C81.7399 64.8663 78.6461 62.261 77.6149 61.7183C75.4438 60.5785 66.5968 59.6015 63.3402 60.1443C61.8748 60.3614 61.1149 60.8499 60.6807 61.7726C60.138 62.9666 60.4093 63.6179 63.3945 68.0143C65.2399 70.7824 66.7596 73.3334 66.7596 73.7676C66.7596 74.1475 65.4027 76.6442 63.7745 79.2495C62.0919 81.8547 60.8435 84.3514 60.8978 84.7856C61.1149 85.9254 65.6198 86.1425 67.9537 85.1656C68.9307 84.7313 71.4817 82.8317 73.6527 80.9863C75.8238 79.1409 77.832 77.784 78.1576 78.0011C78.4833 78.2182 78.0491 79.6294 77.0178 81.6919C75.6066 84.4057 75.4438 85.1656 75.9323 85.9797C76.6922 87.2281 76.3665 87.8251 74.7925 88.205C74.0869 88.3136 67.8452 90.2132 60.8435 92.33C53.8962 94.4468 47.9801 96.1836 47.763 96.1836C47.5459 96.1836 47.166 95.6409 46.9489 94.9895ZM137.21 56.8334C149.259 54.0653 159.355 51.5686 159.735 51.1887C160.223 50.7002 160.223 50.3203 159.735 49.5604C158.866 48.2035 159.3 47.8779 162.014 47.8779C165.054 47.8779 166.682 46.141 167.062 42.5045C167.279 40.0078 167.17 39.6279 165.651 38.1082C163.534 35.9914 161.906 36.4799 160.386 39.6279C159.138 42.2874 157.944 42.6131 157.944 40.3335C157.944 38.1082 156.967 37.4568 154.47 38.1624C153.222 38.4881 152.245 39.1937 151.865 40.0621C151.539 40.7677 151.05 41.3647 150.779 41.3647C150.291 41.3647 147.685 39.248 140.358 32.7348C134.768 27.7957 130.371 26.5473 119.679 26.8187C114.251 26.9273 113.166 27.1444 113.003 27.85C112.949 28.3385 113.926 30.5095 115.282 32.7348C123.587 46.4124 125.975 50.7002 125.758 51.3515C125.595 51.7315 122.501 53.7397 118.865 55.8022C115.228 57.8647 112.08 59.8729 111.972 60.2528C111.375 61.7183 112.297 62.641 113.871 62.261C114.685 62.0439 125.161 59.6015 137.21 56.8334ZM190.346 46.7381C194.851 45.9239 195.286 45.3269 193.549 42.3417C191.269 38.4881 185.299 31.3236 181.119 27.5243C165.488 13.1954 143.669 5.70531 123.532 7.65925C117.725 8.25629 115.88 9.07043 117.236 10.6444C117.779 11.35 119.082 11.5129 123.261 11.5129C143.235 11.5129 164.945 22.2595 178.134 38.5424C179.925 40.8762 182.205 43.9157 183.073 45.3269C184.376 47.4437 184.919 47.9321 185.841 47.6608C186.438 47.4979 188.501 47.0637 190.346 46.7381Z" fill="white"/>
<path d="M282.779 90.8646C282.779 90.5932 284.298 86.4139 286.144 81.4748C287.989 76.5899 291.463 67.2002 293.96 60.6328L298.41 48.692L317.678 48.5292L337.001 48.4206L335.589 51.6772L334.178 54.9338H322.292C315.779 54.9338 310.459 54.988 310.459 55.0966C310.459 55.1509 309.374 58.3532 308.017 62.1525C306.66 66.0061 305.575 69.2627 305.575 69.3712C305.575 69.4798 308.994 69.5883 313.228 69.5883C319.144 69.5883 320.826 69.7511 320.609 70.2939C320.501 70.6196 320.066 71.8679 319.632 73.0077L318.927 75.0159H311.219H303.512L302.481 77.6212C301.884 79.0324 300.418 82.6689 299.279 85.7626L297.162 91.2988H289.997C286.035 91.2988 282.779 91.0817 282.779 90.8646Z" fill="white"/>
<path d="M329.782 89.2906C330.65 88.1508 335.915 81.3662 341.56 74.2018C347.204 67.0373 354.043 58.2989 356.757 54.8252L361.75 48.4206H371.032H380.313L380.693 62.1525C380.856 69.6426 381.181 79.3037 381.398 83.5916L381.724 91.2988H372.986C365.55 91.2988 364.247 91.1902 363.976 90.4303C363.813 89.9419 363.65 87.4994 363.65 85.0027V80.4435H355.943H348.181L347.096 82.0175C346.499 82.886 344.708 85.3284 343.079 87.4452L340.149 91.2988H334.178H328.262L329.782 89.2906ZM363.433 73.062C363.27 72.5735 363.107 69.534 363.107 66.2775C363.107 63.0209 362.944 60.3614 362.727 60.4157C362.239 60.4157 352.795 73.0077 352.795 73.5505C352.795 73.7676 355.237 73.9304 358.277 73.9304C363.053 73.9304 363.704 73.8218 363.433 73.062Z" fill="white"/>
<path d="M394.316 90.6475C391.548 89.182 391.168 86.4139 393.013 81.5291C401.426 59.2759 403.597 53.8482 404.737 52.2742C407.505 48.6377 408.591 48.4206 427.316 48.4206H444.033L445.336 49.7775C447.127 51.5144 447.072 53.4683 445.064 58.6245L443.436 62.8038H435.892H428.293L428.619 61.4469C428.781 60.687 429.378 59.0587 429.976 57.7561C430.518 56.4535 430.952 55.2594 430.952 55.1509C430.952 55.0423 428.184 54.9338 424.765 54.9338H418.632L416.895 59.2216C413.964 66.5488 408.102 82.2889 407.777 83.5916L407.505 84.8399L413.638 84.6771L419.826 84.5143L421.237 80.9863L422.648 77.4584L430.301 77.2955C434.535 77.2412 438.008 77.2412 438.008 77.4041C438.008 78.381 434.915 85.3827 433.666 87.2281C430.952 91.1359 430.084 91.2988 411.522 91.2988C400.884 91.2445 395.022 91.0817 394.316 90.6475Z" fill="white"/>
<path d="M444.467 88.7478C445.01 87.2823 448.592 77.6755 452.446 67.3087L459.447 48.4206H466.938C471.063 48.4206 474.373 48.5835 474.265 48.8548C473.831 49.8318 469.868 60.2528 467.426 66.8745C465.906 70.8909 463.247 78.0554 461.51 82.7231L458.362 91.2988H450.926H443.436L444.467 88.7478Z" fill="white"/>
<path d="M468.946 91.0817C468.946 90.756 473.125 79.6837 474.048 77.7297C474.482 76.6985 477.087 69.8597 479.801 62.5324C482.569 55.2051 484.957 49.0177 485.174 48.8006C485.391 48.5835 488.757 48.4749 492.664 48.5292L499.72 48.692L497.604 54.391C496.464 57.539 493.533 65.3548 491.09 71.7594C488.702 78.1639 486.586 83.7544 486.477 84.1343C486.26 84.6228 488.757 84.7856 497.983 84.7856C509.002 84.7856 509.761 84.8399 509.381 85.7626C509.164 86.2511 508.622 87.7165 508.187 89.0192L507.373 91.2988H488.16C477.576 91.2988 468.946 91.1902 468.946 91.0817Z" fill="white"/>
<path d="M519.477 86.8481C524.09 74.5274 526.75 67.4173 527.673 64.9748C528.27 63.5094 528.921 61.664 529.192 60.9041C529.464 60.1443 530.603 57.1048 531.797 54.1196L533.969 48.692L553.019 48.5292C563.495 48.4749 572.07 48.4749 572.07 48.6377C572.07 48.7463 571.473 50.2117 570.713 51.8943L569.357 54.9338H557.741H546.126L543.901 60.687C542.653 63.835 541.676 66.7659 541.676 67.2002C541.676 67.9057 542.87 68.0143 549.166 67.8515L556.656 67.6886L555.842 70.2396L554.973 72.7906L547.103 72.9534L539.288 73.1163L537.225 78.5439C536.085 81.5291 535.163 84.1343 535.163 84.4057C535.163 84.6228 540.373 84.7856 546.778 84.7856H558.393L557.199 87.9336L556.005 91.0274L536.899 91.1902L517.794 91.2988L519.477 86.8481Z" fill="white"/>
<path d="M423.226 124.275C422.463 124.167 421.878 123.627 421.786 122.946C421.72 122.473 422.023 121.938 422.729 121.285C423.424 120.643 424.044 120.387 425.765 120.021C426.521 119.863 426.576 119.837 426.934 119.455C427.176 119.199 427.347 118.932 427.657 118.317C428.099 117.441 428.143 117.228 427.884 117.2C427.719 117.183 427.336 117.521 426.956 118.017C426.554 118.551 425.732 119.286 425.426 119.39C425.123 119.488 424.488 119.505 424.162 119.418C423.885 119.342 423.384 119.015 423.263 118.835C423.008 118.453 423.241 117.827 424.659 115.001C425.642 113.03 426.066 112.334 426.431 112.1C426.519 112.046 426.624 111.964 426.668 111.927C426.84 111.758 427.567 111.307 428.082 111.051C428.407 110.892 428.838 110.73 429.13 110.665C429.576 110.556 429.743 110.546 430.814 110.561C432.696 110.593 433.348 110.756 433.557 111.242C433.619 111.393 433.623 111.469 433.568 111.627C433.436 112.024 428.337 122.016 428.132 122.282C427.811 122.69 427.205 123.263 426.851 123.49C426.58 123.659 426.343 123.774 425.817 123.998C425.701 124.047 425.475 124.117 425.083 124.214C424.784 124.29 423.6 124.329 423.224 124.275H423.226ZM424.65 123.432C425.042 123.208 425.264 122.996 425.527 122.593C426.09 121.732 426.167 121.476 425.93 121.248C425.809 121.129 425.747 121.112 425.356 121.112C424.29 121.112 422.96 121.84 422.711 122.564C422.624 122.831 422.755 123.206 423.026 123.436C423.208 123.594 423.292 123.609 423.887 123.594C424.323 123.588 424.424 123.566 424.65 123.432ZM425.793 118.325C426.02 118.2 426.301 117.933 426.567 117.573C426.644 117.469 426.782 117.3 426.877 117.191C426.972 117.087 427.092 116.94 427.154 116.87C427.209 116.799 427.431 116.554 427.64 116.326C427.849 116.099 428.097 115.814 428.192 115.689C428.534 115.249 428.976 114.719 429.28 114.392C429.677 113.963 430.064 113.445 430.218 113.15C430.284 113.02 430.368 112.876 430.405 112.833C430.537 112.675 430.759 112.239 430.818 112.011C430.895 111.738 430.825 111.528 430.603 111.38C430.398 111.239 429.416 111.244 429.025 111.38C428.29 111.647 428.027 111.849 427.519 112.551C427.325 112.818 425.437 116.597 425.156 117.272C424.896 117.909 424.879 118 424.98 118.187C425.129 118.471 425.422 118.518 425.798 118.323L425.793 118.325Z" fill="white"/>
<path d="M411.303 119.422C410.938 119.243 410.756 119.102 410.569 118.839C410.371 118.562 410.404 118.284 410.729 117.538C411.12 116.623 412.793 113.308 413.059 112.915C413.407 112.393 413.91 111.925 414.561 111.506C415.383 110.977 415.583 110.89 416.504 110.663C416.884 110.565 417.121 110.548 418.049 110.548C418.651 110.548 419.225 110.569 419.331 110.602C419.43 110.63 419.7 110.678 419.922 110.71C420.59 110.797 420.937 111.031 420.937 111.391C420.937 111.489 420.696 112.039 420.324 112.779C419.988 113.453 419.696 114.054 419.674 114.112C419.645 114.173 419.375 114.739 419.06 115.366C418.75 115.997 418.425 116.688 418.337 116.907C418.249 117.124 418.1 117.452 418.012 117.625C417.847 117.952 417.792 118.087 417.57 118.8C417.394 119.355 417.168 119.585 416.781 119.585C416.345 119.585 415.776 119.171 415.605 118.735C415.528 118.533 415.517 118.375 415.543 117.816C415.576 117.087 415.543 116.972 415.295 116.972C415.196 116.972 414.644 117.473 414.451 117.74C413.921 118.468 413.33 119.102 412.96 119.34C412.617 119.557 412.529 119.585 412.083 119.585C411.703 119.585 411.586 119.557 411.305 119.422H411.303ZM413.075 118.323C413.341 118.122 413.969 117.473 414.196 117.174C414.312 117.016 414.484 116.814 414.572 116.723C414.659 116.636 414.842 116.424 414.969 116.261C415.101 116.098 415.372 115.799 415.576 115.587C415.781 115.381 416.007 115.118 416.077 115.014C416.15 114.91 416.458 114.574 416.761 114.262C417.583 113.434 418.102 112.579 418.157 111.964C418.185 111.664 418.179 111.643 418.007 111.484C417.798 111.283 417.517 111.229 416.897 111.272C416.123 111.322 415.352 111.794 414.855 112.519C414.635 112.835 413.492 115.077 412.664 116.825C412.145 117.909 412.079 118.148 412.261 118.327C412.426 118.49 412.857 118.486 413.072 118.321L413.075 118.323Z" fill="white"/>
<path d="M436.83 119.533C436.753 119.505 436.593 119.472 436.476 119.451C436.334 119.429 436.195 119.353 436.074 119.234C435.76 118.924 435.819 118.64 436.52 117.252C436.707 116.877 436.951 116.369 437.05 116.131C437.663 114.711 438.862 112.575 439.279 112.15C439.444 111.987 440.018 111.567 440.306 111.404C440.715 111.176 441.631 110.838 442.26 110.691C442.761 110.571 442.966 110.55 443.739 110.55C444.737 110.55 445.036 110.604 445.577 110.877C446.168 111.176 446.377 111.421 446.377 111.807C446.377 112.347 444.726 115.331 444.317 115.543C443.959 115.723 443.77 115.745 442.042 115.771L440.275 115.804L439.961 115.955C439.789 116.038 439.574 116.194 439.481 116.298C439.171 116.641 438.703 117.692 438.703 118.035C438.703 118.319 438.879 118.529 439.233 118.655C439.569 118.781 439.525 118.785 440.442 118.594C440.596 118.562 440.943 118.442 441.216 118.327C441.493 118.208 441.851 118.089 442.027 118.05C442.297 117.996 442.352 118 442.48 118.078C442.662 118.197 442.662 118.284 442.469 118.475C441.979 118.976 441.724 119.128 440.89 119.401L440.339 119.585L438.655 119.579C437.723 119.579 436.905 119.557 436.828 119.529L436.83 119.533ZM442.719 114.431C443.333 114.305 443.469 114.186 443.922 113.418C444.539 112.367 444.616 112.068 444.331 111.768C444.089 111.513 443.144 111.458 442.464 111.664C441.697 111.898 440.477 113.57 440.693 114.086C440.857 114.479 441.774 114.631 442.719 114.429V114.431Z" fill="white"/>
<path d="M463.519 119.527C463.431 119.498 463.264 119.444 463.16 119.412C462.901 119.329 462.173 118.9 462.039 118.752C461.846 118.529 461.78 118.284 461.78 117.762C461.78 117.332 461.797 117.233 461.907 117.076C461.973 116.972 462.105 116.86 462.195 116.814C462.422 116.706 463.255 116.667 463.525 116.753C463.85 116.862 463.901 116.97 463.934 117.651C463.967 118.343 464.039 118.527 464.325 118.681C464.789 118.926 465.396 118.501 465.877 117.597C466.209 116.966 466.246 116.747 466.075 116.443C466.002 116.313 465.699 115.96 465.391 115.654C465.088 115.344 464.778 115.006 464.708 114.902C464.635 114.798 464.415 114.542 464.218 114.34C464.013 114.138 463.82 113.893 463.776 113.796C463.648 113.501 463.725 113.132 464.046 112.506C464.503 111.601 464.813 111.248 465.339 111.007C465.616 110.888 466.337 110.708 466.574 110.708C466.673 110.708 466.932 110.669 467.143 110.621C467.552 110.528 467.585 110.528 468.546 110.682C469.251 110.791 469.86 111.064 470.295 111.461C470.588 111.734 470.814 112.213 470.753 112.445C470.68 112.733 470.427 113.169 470.263 113.288C470.008 113.473 469.174 113.62 468.827 113.54C468.253 113.414 468.115 113.241 468.231 112.794C468.271 112.664 468.297 112.408 468.297 112.217C468.291 111.792 468.192 111.64 467.873 111.597C467.227 111.515 466.963 111.727 466.306 112.876C466.251 112.974 466.185 113.15 466.167 113.269C466.101 113.655 466.174 113.824 466.581 114.232C466.785 114.444 467.011 114.7 467.082 114.798C467.154 114.902 467.425 115.194 467.677 115.45C468.306 116.092 468.572 116.502 468.572 116.838C468.572 117.224 467.998 118.254 467.59 118.607C467.11 119.026 466.409 119.381 465.796 119.522C465.481 119.594 463.754 119.594 463.521 119.522L463.519 119.527Z" fill="white"/>
<path d="M393.199 119.407C392.983 119.31 392.922 119.227 392.845 118.961C392.794 118.776 392.812 118.644 392.95 118.063C393.045 117.688 393.144 117.295 393.17 117.191C393.199 117.087 393.324 116.608 393.451 116.129C393.882 114.479 394.043 113.891 394.135 113.592C394.186 113.429 394.296 113.03 394.383 112.699C394.858 110.886 394.997 110.71 395.99 110.71C397.127 110.71 397.149 110.851 396.432 113.351C396.333 113.683 396.223 114.075 396.177 114.227C396.133 114.379 396.012 114.772 395.907 115.092C395.676 115.788 395.63 116.001 395.676 116.181C395.705 116.289 395.749 116.318 395.891 116.318C396.085 116.318 396.228 116.192 396.593 115.719C396.698 115.582 396.797 115.463 396.812 115.446C396.834 115.429 396.955 115.266 397.083 115.075C397.276 114.791 398.037 113.768 398.263 113.486C398.369 113.36 399.037 112.506 399.158 112.347C399.907 111.367 400.483 110.758 400.765 110.65C400.958 110.578 401.211 110.632 401.284 110.765C401.433 111.042 401.323 111.237 400.461 112.263C400.411 112.324 400.312 112.458 400.235 112.562C400.162 112.666 400.086 112.764 400.064 112.779C400.046 112.796 399.833 113.067 399.595 113.384C399.358 113.7 398.85 114.357 398.481 114.854C398.105 115.344 397.753 115.806 397.696 115.884C397.641 115.96 397.514 116.129 397.408 116.265C397.309 116.402 397.039 116.766 396.817 117.083C396.59 117.399 396.316 117.779 396.204 117.926C396.094 118.078 395.894 118.345 395.762 118.525C395.159 119.347 394.988 119.44 394.052 119.462C393.561 119.472 393.313 119.455 393.196 119.407H393.199Z" fill="white"/>
<path d="M403.587 119.407C403.288 119.314 402.915 119 402.765 118.716C402.666 118.52 402.638 118.384 402.638 118.035C402.638 117.469 402.715 117.246 403.405 115.884C403.715 115.268 404.051 114.572 404.154 114.331C404.26 114.093 404.645 113.291 405.02 112.551C405.594 111.419 405.737 111.179 405.948 110.994C406.247 110.738 406.361 110.71 407.129 110.717C407.83 110.723 407.946 110.749 408.089 110.94C408.228 111.124 408.298 110.951 406.997 113.542C406.416 114.696 405.909 115.726 405.865 115.83C405.825 115.934 405.623 116.37 405.412 116.792C405.203 117.217 404.922 117.903 404.783 118.317C404.473 119.225 404.469 119.236 404.247 119.368C404.049 119.488 403.888 119.498 403.585 119.407H403.587Z" fill="white"/>
<path d="M448.494 119.368C448.235 119.216 448.257 119.047 448.643 118.273C448.826 117.909 448.975 117.592 448.975 117.566C448.975 117.538 449.07 117.315 449.191 117.066C449.307 116.821 449.516 116.385 449.655 116.103C449.786 115.819 449.932 115.498 449.969 115.396C450.008 115.292 450.51 114.275 451.094 113.141C452.358 110.669 452.275 110.762 453.11 110.723C453.767 110.691 454.016 110.734 454.165 110.886C454.33 111.059 454.308 111.474 454.11 112.057C453.923 112.59 453.906 112.738 454.022 112.831C454.084 112.885 454.139 112.881 454.26 112.82C454.464 112.712 455.236 111.966 455.552 111.567C455.818 111.239 456.276 110.864 456.563 110.745C457.032 110.55 457.276 110.539 457.871 110.658C459.285 110.947 459.964 111.421 459.804 112.003C459.771 112.118 459.61 112.432 459.439 112.699C459.135 113.193 457.258 116.814 457.258 116.914C457.258 116.964 456.779 117.987 456.425 118.69C456.216 119.108 456.012 119.331 455.774 119.414C455.493 119.511 454.532 119.496 454.335 119.396C454.003 119.227 453.965 118.831 454.229 118.28C454.324 118.085 454.471 117.74 454.565 117.517C454.653 117.293 454.996 116.58 455.328 115.932C455.66 115.283 455.979 114.631 456.04 114.472C456.106 114.32 456.333 113.835 456.555 113.388C457.095 112.304 457.102 111.957 456.577 111.868C456.141 111.797 455.781 112.074 454.794 113.241C454.563 113.514 454.209 113.904 454.009 114.112C453.805 114.325 453.523 114.641 453.381 114.819C453.238 114.999 452.945 115.353 452.734 115.608C451.978 116.513 451.873 116.675 451.215 117.944C450.569 119.197 450.547 119.234 450.305 119.353C450.09 119.457 449.98 119.472 449.367 119.472C448.775 119.472 448.65 119.455 448.501 119.364L448.494 119.368Z" fill="white"/>
<path d="M407.493 109.394C407.318 109.297 407.146 109.078 407.113 108.9C407.047 108.579 407.168 108.338 407.649 107.859C408.201 107.315 408.362 107.228 408.841 107.228C409.166 107.228 409.232 107.245 409.404 107.386C409.674 107.61 409.758 107.887 409.645 108.241C409.54 108.59 409.254 108.9 408.735 109.21C408.359 109.444 408.3 109.461 407.962 109.461C407.764 109.461 407.553 109.429 407.493 109.396V109.394Z" fill="white"/>
</g>
</svg>
